<svg xmlns="http://www.w3.org/2000/svg" viewBox="0 0 187.5 48.4"><defs><style>.cls-1{fill:#00afec;}.cls-2{fill:#ee7b3e;}.cls-3{fill:#b5be7a;}.cls-4{fill:#be8963;}</style></defs><title>Asset 1</title><g id="Layer_2" data-name="Layer 2"><g id="图层_1" data-name="图层 1"><polygon class="cls-1" points="46.7 7 46.8 12.9 54.9 12.9 54.9 0.1 2.7 0.1 0 3.1 0 25.9 2.8 28.4 46.8 28.5 46.8 41 8.8 41 8.8 34.8 0 34.9 0 48.4 52.7 48.4 54.9 45.9 54.9 22.6 52.8 20.6 8.8 20.6 8.8 7.2 46.7 7"/><polygon class="cls-2" points="105 7 105 20.6 114.7 20.6 114.7 0.1 61.6 0.1 61.6 48.4 114.7 48.4 114.7 28.5 105 28.5 105 41 71.3 41 71.3 7 105 7"/><rect class="cls-3" x="121.8" width="9.5" height="48.3"/><path class="cls-4" d="M138.6.2V48.4h9.2V28.5l39.7.1V.2Zm9.2,20.4V7h31.3l.1,13.6Z"/></g></g></svg>